<svg id="visual" viewBox="0 0 900 600" width="900" height="600" xmlns="http://www.w3.org/2000/svg" xmlns:xlink="http://www.w3.org/1999/xlink" version="1.1"><path d="M0 61L13.7 63C27.3 65 54.7 69 82 71C109.3 73 136.7 73 163.8 73C191 73 218 73 245.2 77C272.3 81 299.7 89 327 87C354.3 85 381.7 73 409 66C436.3 59 463.7 57 491 60C518.3 63 545.7 71 573 76C600.3 81 627.7 83 654.8 76C682 69 709 53 736.2 52C763.3 51 790.7 65 818 71C845.3 77 872.7 75 886.3 74L900 73L900 0L886.3 0C872.7 0 845.3 0 818 0C790.7 0 763.3 0 736.2 0C709 0 682 0 654.8 0C627.7 0 600.3 0 573 0C545.7 0 518.3 0 491 0C463.7 0 436.3 0 409 0C381.7 0 354.3 0 327 0C299.7 0 272.3 0 245.2 0C218 0 191 0 163.8 0C136.7 0 109.3 0 82 0C54.7 0 27.3 0 13.7 0L0 0Z" fill="#004cbb"></path><path d="M0 205L13.7 200C27.3 195 54.7 185 82 175C109.3 165 136.7 155 163.8 157C191 159 218 173 245.2 181C272.3 189 299.7 191 327 195C354.3 199 381.7 205 409 200C436.3 195 463.7 179 491 178C518.3 177 545.7 191 573 190C600.3 189 627.7 173 654.8 155C682 137 709 117 736.2 113C763.3 109 790.7 121 818 142C845.3 163 872.7 193 886.3 208L900 223L900 71L886.3 72C872.7 73 845.3 75 818 69C790.7 63 763.3 49 736.2 50C709 51 682 67 654.8 74C627.7 81 600.3 79 573 74C545.7 69 518.3 61 491 58C463.7 55 436.3 57 409 64C381.7 71 354.3 83 327 85C299.7 87 272.3 79 245.2 75C218 71 191 71 163.8 71C136.7 71 109.3 71 82 69C54.7 67 27.3 63 13.7 61L0 59Z" fill="#0059dd"></path><path d="M0 397L13.7 383C27.3 369 54.7 341 82 316C109.3 291 136.7 269 163.8 263C191 257 218 267 245.2 274C272.3 281 299.7 285 327 296C354.3 307 381.7 325 409 340C436.3 355 463.7 367 491 378C518.3 389 545.7 399 573 401C600.3 403 627.7 397 654.8 389C682 381 709 371 736.2 369C763.3 367 790.7 373 818 378C845.3 383 872.7 387 886.3 389L900 391L900 221L886.3 206C872.7 191 845.3 161 818 140C790.7 119 763.3 107 736.2 111C709 115 682 135 654.8 153C627.7 171 600.3 187 573 188C545.7 189 518.3 175 491 176C463.7 177 436.3 193 409 198C381.7 203 354.3 197 327 193C299.7 189 272.3 187 245.2 179C218 171 191 157 163.8 155C136.7 153 109.3 163 82 173C54.7 183 27.3 193 13.7 198L0 203Z" fill="#0066ff"></path><path d="M0 439L13.7 438C27.3 437 54.7 435 82 410C109.3 385 136.7 337 163.8 324C191 311 218 333 245.2 342C272.3 351 299.7 347 327 359C354.3 371 381.7 399 409 426C436.3 453 463.7 479 491 485C518.3 491 545.7 477 573 466C600.3 455 627.7 447 654.8 442C682 437 709 435 736.2 435C763.3 435 790.7 437 818 443C845.3 449 872.7 459 886.3 464L900 469L900 389L886.3 387C872.7 385 845.3 381 818 376C790.7 371 763.3 365 736.2 367C709 369 682 379 654.8 387C627.7 395 600.3 401 573 399C545.7 397 518.3 387 491 376C463.7 365 436.3 353 409 338C381.7 323 354.3 305 327 294C299.7 283 272.3 279 245.2 272C218 265 191 255 163.8 261C136.7 267 109.3 289 82 314C54.7 339 27.3 367 13.7 381L0 395Z" fill="#3c80ff"></path><path d="M0 601L13.7 601C27.3 601 54.7 601 82 601C109.3 601 136.7 601 163.8 601C191 601 218 601 245.2 601C272.3 601 299.7 601 327 601C354.3 601 381.7 601 409 601C436.3 601 463.7 601 491 601C518.3 601 545.7 601 573 601C600.3 601 627.7 601 654.8 601C682 601 709 601 736.2 601C763.3 601 790.7 601 818 601C845.3 601 872.7 601 886.3 601L900 601L900 467L886.3 462C872.7 457 845.3 447 818 441C790.7 435 763.3 433 736.2 433C709 433 682 435 654.8 440C627.7 445 600.3 453 573 464C545.7 475 518.3 489 491 483C463.7 477 436.3 451 409 424C381.7 397 354.3 369 327 357C299.7 345 272.3 349 245.2 340C218 331 191 309 163.8 322C136.7 335 109.3 383 82 408C54.7 433 27.3 435 13.7 436L0 437Z" fill="#6198ff"></path></svg>